<svg xmlns="http://www.w3.org/2000/svg" width="163" height="85.272" viewBox="0 0 163 85.272">
  <g id="Group_10740" data-name="Group 10740" transform="translate(-6929 -171)">
    <g id="Logo" transform="translate(6929 171)">
      <path id="Path_47148" data-name="Path 47148" d="M141.787,5.345a1.622,1.622,0,0,1,1.266-.928C149.467,2.939,155.882,1.462,162.3.028A.7.7,0,0,1,162.8.07c.211.084.253.38.127.633l-1.14,2.152c-2.363,4.431-4.726,8.819-7.089,13.25a1.429,1.429,0,0,1-1.646.844,1.348,1.348,0,0,1-.675-.38c-1.688-1.6-3.334-3.207-5.064-4.853,4.769-3.545,9.537-7.089,14.306-10.592a.042.042,0,0,0-.043-.042c-5.274,3.08-10.549,6.119-15.824,9.2-1.224-1.224-2.49-2.405-3.714-3.587a1.842,1.842,0,0,1-.337-.633.255.255,0,0,1-.042-.169A1.463,1.463,0,0,0,141.787,5.345Z" fill="#ed1c24"/>
      <path id="Path_47149" data-name="Path 47149" d="M146.387,16.612a1,1,0,0,1-1.477-.886c-.084-1.392-.127-2.785-.169-4.135v-.464c1.477,1.392,2.912,2.785,4.389,4.178-.127.084-.211.127-.338.211" fill="#ed1c24"/>
      <path id="Path_47150" data-name="Path 47150" d="M89.756,51.046V24.672a5.991,5.991,0,0,1,1.688-4.6,6.45,6.45,0,0,1,4.684-1.6h7.723a6.78,6.78,0,0,1,4.009,1.013,5.906,5.906,0,0,1,2.447,4.9V36.192a6.573,6.573,0,0,1-1.561,4.558,6.135,6.135,0,0,1-4.727,2.279H93.765v8.018Zm4.135-14.516a2.456,2.456,0,0,0,.717,1.73,2.489,2.489,0,0,0,1.519.717h7.891a.629.629,0,0,0,.3-.042,2.283,2.283,0,0,0,1.983-1.941,1.318,1.318,0,0,0,.042-.464V24.461a2.024,2.024,0,0,0-.464-1.35,2.538,2.538,0,0,0-1.35-.549H96.8c-1.941,0-2.912.844-2.912,2.49V36.065A.806.806,0,0,0,93.892,36.529Z" fill="#ed1c24"/>
      <path id="Path_47151" data-name="Path 47151" d="M112.333,36.445V33.491a8.824,8.824,0,0,1,1.434-5.317A5.589,5.589,0,0,1,118.62,25.9h10.128V24.208a1.734,1.734,0,0,0-.464-1.182,1.421,1.421,0,0,0-1.1-.506h-14.9V18.426h14.558c3.207,0,5.148,1.519,5.866,4.557.042.506.084.886.084,1.139v12.66a5.83,5.83,0,0,1-.886,3.123,5.786,5.786,0,0,1-5.106,3.123H118.62a5.881,5.881,0,0,1-3.544-1.266,7.036,7.036,0,0,1-2.406-3A7.688,7.688,0,0,1,112.333,36.445Zm5.148,2.152a5.126,5.126,0,0,0,2.321.38h5.57c2.279,0,3.376-.8,3.376-2.448V32.563c0-1.561-.971-2.448-2.87-2.616h-6.54c-1.941.211-2.912,1.1-2.912,2.616v3.967A2.037,2.037,0,0,0,117.481,38.6Z" fill="#ed1c24"/>
      <path id="Path_47152" data-name="Path 47152" d="M134.782,51.046V46.953H149a2.3,2.3,0,0,0,2.026-2.616V43.028H140.774a5.909,5.909,0,0,1-5.992-5.992V18.469h4.093v17.47q0,3.038,2.912,3.038H148.2c1.9,0,2.828-.886,2.828-2.616V18.469h4.093V44.125a7.469,7.469,0,0,1-1.6,5.022,6.231,6.231,0,0,1-4.852,1.9Z" fill="#ed1c24"/>
      <path id="Path_47153" data-name="Path 47153" d="M0,18.51H14.432v3.123H12.027a1.414,1.414,0,0,0-1.435,1.392v15.4a1.414,1.414,0,0,0,1.435,1.393h2.405v3.123H0V39.821H2.785A1.414,1.414,0,0,0,4.22,38.428v-15.4a1.414,1.414,0,0,0-1.435-1.392H0Z" fill="#ed1c24" fill-rule="evenodd"/>
      <path id="Path_47154" data-name="Path 47154" d="M16.837,18.511H29.581l3.249,7.511,3.207,7.511,3.207-7.511,3.249-7.511h12.2v3.123H51.947a1.423,1.423,0,0,0-1.435,1.435V38.555a1.423,1.423,0,0,0,1.435,1.435H54.69v3H40.131V39.948h2.026a1.564,1.564,0,0,0,1.9-1.435l.084-14.348L36.08,42.986v.042H33.168v-.042L25.024,24.165l.084,14.348c.127,1.688,1.9,1.435,1.9,1.435h2.026v3.038h-12.2v-3h2.7a1.423,1.423,0,0,0,1.435-1.435V23.026a1.423,1.423,0,0,0-1.435-1.435h-2.7v-3.08Z" fill="#ed1c24" fill-rule="evenodd"/>
      <path id="Path_47155" data-name="Path 47155" d="M83.764,42.986H57.221V39.948h2.7a1.423,1.423,0,0,0,1.435-1.435V23.026a1.423,1.423,0,0,0-1.435-1.435h-2.7V18.469H83.764v9.579H80.177a18.352,18.352,0,0,0-.97-4.642c-.8-1.815-4.347-1.688-4.347-1.688H67.771l-.042,7c4.684.084,5.908.338,5.613-4.093h3.545v11.6H73.341s0-.633-.084-2.616c-.084-2.152-3.418-1.646-5.486-1.6v7.764l7.68.042c3-.211,3.882-1.688,4.389-3.165a17.158,17.158,0,0,0,.422-4.136h3.545V42.986Z" fill="#ed1c24" fill-rule="evenodd"/>
    </g>
    <path id="Path_47156" data-name="Path 47156" d="M1.92-20.512H9.376a12.063,12.063,0,0,1,8.32,2.928,9.445,9.445,0,0,1,3.3,7.376A9.316,9.316,0,0,1,17.7-2.9,12.145,12.145,0,0,1,9.376,0H1.92Zm5.44,4.96V-4.96H9.312A6.356,6.356,0,0,0,13.68-6.416a4.894,4.894,0,0,0,1.648-3.856A4.836,4.836,0,0,0,13.664-14.1,6.417,6.417,0,0,0,9.28-15.552Zm31.3,7.584a9.22,9.22,0,0,1-.1,1.6H28.16a3.134,3.134,0,0,0,1.184,1.712,3.511,3.511,0,0,0,2.112.624,4.264,4.264,0,0,0,3.168-1.44l2.624,3.488a6.482,6.482,0,0,1-2.464,1.76,8.645,8.645,0,0,1-3.52.7,8.272,8.272,0,0,1-6.032-2.368,7.762,7.762,0,0,1-2.416-5.76A8.036,8.036,0,0,1,25.1-13.424a7.481,7.481,0,0,1,5.616-2.384,7.759,7.759,0,0,1,5.648,2.24A7.515,7.515,0,0,1,38.656-7.968Zm-7.84-3.52A2.554,2.554,0,0,0,28.256-9.5h5.12A2.491,2.491,0,0,0,30.816-11.488ZM44.224,0l-5.28-15.328h5.664L47.68-4.544l3.232-10.784h5.216L50.912,0ZM72.352-7.968a9.22,9.22,0,0,1-.1,1.6h-10.4A3.134,3.134,0,0,0,63.04-4.656a3.511,3.511,0,0,0,2.112.624,4.264,4.264,0,0,0,3.168-1.44l2.624,3.488A6.482,6.482,0,0,1,68.48-.224a8.645,8.645,0,0,1-3.52.7,8.272,8.272,0,0,1-6.032-2.368,7.762,7.762,0,0,1-2.416-5.76A8.036,8.036,0,0,1,58.8-13.424a7.481,7.481,0,0,1,5.616-2.384,7.759,7.759,0,0,1,5.648,2.24A7.515,7.515,0,0,1,72.352-7.968Zm-7.84-3.52A2.554,2.554,0,0,0,61.952-9.5h5.12A2.491,2.491,0,0,0,64.512-11.488ZM74.88-22.016h5.152V0H74.88ZM82.656-7.648a7.84,7.84,0,0,1,2.4-5.776,7.882,7.882,0,0,1,5.76-2.384,7.882,7.882,0,0,1,5.76,2.384,7.84,7.84,0,0,1,2.4,5.776,7.8,7.8,0,0,1-2.4,5.744A7.882,7.882,0,0,1,90.816.48,7.882,7.882,0,0,1,85.056-1.9,7.8,7.8,0,0,1,82.656-7.648ZM92.96-5.28a3.41,3.41,0,0,0,.864-2.368,3.41,3.41,0,0,0-.864-2.368,2.768,2.768,0,0,0-2.144-.96,2.768,2.768,0,0,0-2.144.96,3.41,3.41,0,0,0-.864,2.368A3.352,3.352,0,0,0,88.672-5.3a2.789,2.789,0,0,0,2.144.944A2.811,2.811,0,0,0,92.96-5.28Zm17.7-10.528a6.805,6.805,0,0,1,5.136,2.256A8.209,8.209,0,0,1,117.92-7.68a8.461,8.461,0,0,1-2.064,5.84,6.663,6.663,0,0,1-5.2,2.32,4.722,4.722,0,0,1-3.9-1.76V6.272H101.6v-21.6h5.152v1.44A4.732,4.732,0,0,1,110.656-15.808Zm-3.04,10.5a2.768,2.768,0,0,0,2.144.96,2.768,2.768,0,0,0,2.144-.96,3.41,3.41,0,0,0,.864-2.368,3.352,3.352,0,0,0-.864-2.352,2.789,2.789,0,0,0-2.144-.944,2.789,2.789,0,0,0-2.144.944,3.352,3.352,0,0,0-.864,2.352A3.41,3.41,0,0,0,107.616-5.312Zm27.872-2.656a9.221,9.221,0,0,1-.1,1.6h-10.4a3.134,3.134,0,0,0,1.184,1.712,3.511,3.511,0,0,0,2.112.624,4.264,4.264,0,0,0,3.168-1.44l2.624,3.488a6.482,6.482,0,0,1-2.464,1.76,8.645,8.645,0,0,1-3.52.7,8.272,8.272,0,0,1-6.032-2.368,7.762,7.762,0,0,1-2.416-5.76,8.036,8.036,0,0,1,2.288-5.776,7.481,7.481,0,0,1,5.616-2.384,7.759,7.759,0,0,1,5.648,2.24A7.515,7.515,0,0,1,135.488-7.968Zm-7.84-3.52a2.554,2.554,0,0,0-2.56,1.984h5.12A2.491,2.491,0,0,0,127.648-11.488Zm19.168-4.32a3.682,3.682,0,0,1,2.56.864l-2.112,4.864a3.024,3.024,0,0,0-2.08-.736,1.778,1.778,0,0,0-1.472.688,2.884,2.884,0,0,0-.544,1.84V0h-5.152V-15.328h5.152v2.368Q144.416-15.808,146.816-15.808ZM156.032.48a8.729,8.729,0,0,1-6.784-2.624l2.784-3.264a5.869,5.869,0,0,0,4.288,1.824q1.408,0,1.408-.864a.913.913,0,0,0-.576-.768,5.389,5.389,0,0,0-1.424-.512,13.866,13.866,0,0,1-1.856-.576,12.442,12.442,0,0,1-1.856-.88,4.024,4.024,0,0,1-1.424-1.472,4.419,4.419,0,0,1-.576-2.288,4.407,4.407,0,0,1,1.664-3.408,6.764,6.764,0,0,1,4.608-1.456q4.608,0,6.56,2.688l-2.816,3.008a4.525,4.525,0,0,0-3.584-1.632q-1.344,0-1.344.832,0,.512.8.848a12.822,12.822,0,0,0,1.92.608,17.24,17.24,0,0,1,2.256.72,4.423,4.423,0,0,1,1.936,1.52,4.4,4.4,0,0,1,.8,2.7A4.423,4.423,0,0,1,161.04-.976,7.7,7.7,0,0,1,156.032.48Z" transform="translate(6929 250)"/>
  </g>
</svg>
